<?xml version="1.0" encoding="UTF-8"?>
<svg id="Layer_1" data-name="Layer 1" xmlns="http://www.w3.org/2000/svg" xmlns:xlink="http://www.w3.org/1999/xlink" viewBox="0 0 438.8 671">
  <defs>
    <style>
      .cls-1 {
        fill: none;
      }

      .cls-2 {
        clip-path: url(#clippath);
      }

      .cls-3 {
        fill: url(#linear-gradient);
      }

      .cls-3, .cls-4 {
        fill-rule: evenodd;
        isolation: isolate;
      }

      .cls-3, .cls-4, .cls-5 {
        opacity: .5;
      }

      .cls-6 {
        clip-path: url(#clippath-1);
      }

      .cls-7 {
        clip-path: url(#clippath-2);
      }

      .cls-4 {
        fill: url(#linear-gradient-2);
      }
    </style>
    <clipPath id="clippath">
      <rect class="cls-1" width="438.8" height="671"/>
    </clipPath>
    <clipPath id="clippath-1">
      <rect class="cls-1" x="-226.59" width="757.98" height="671"/>
    </clipPath>
    <clipPath id="clippath-2">
      <rect class="cls-1" x="188.82" y="1" width="295.82" height="671"/>
    </clipPath>
    <linearGradient id="linear-gradient" x1="677.34" y1="69.99" x2="232.76" y2="270.47" gradientTransform="translate(0 160)" gradientUnits="userSpaceOnUse">
      <stop offset="0" stop-color="#0f2c2f" stop-opacity="0"/>
      <stop offset=".12" stop-color="#0f4d2f"/>
      <stop offset=".29" stop-color="#2a73ff"/>
      <stop offset=".53" stop-color="#b7ff94"/>
      <stop offset=".64" stop-color="#f8c55c"/>
      <stop offset="1" stop-color="#0c1824" stop-opacity="0"/>
    </linearGradient>
    <linearGradient id="linear-gradient-2" x1="-100.86" y1="167.5" x2="218.89" y2="253.65" gradientTransform="translate(0 160)" gradientUnits="userSpaceOnUse">
      <stop offset="0" stop-color="#0f2c2f" stop-opacity="0"/>
      <stop offset=".12" stop-color="#0f4d2f"/>
      <stop offset=".29" stop-color="#2a73ff"/>
      <stop offset=".53" stop-color="#b7ff94"/>
      <stop offset=".64" stop-color="#f8c55c"/>
      <stop offset="1" stop-color="#0c1824" stop-opacity="0"/>
    </linearGradient>
  </defs>
  <g class="cls-2">
    <g class="cls-6">
      <g class="cls-5">
        <g class="cls-7">
          <path class="cls-3" d="M484.64,37.4l.11,.4h-.05c-.05,0-.11,.1-.16,.2-.16,.2-.42,.4-.74,.7-.63,.6-1.58,1.4-2.84,2.5-2.53,2.2-6.37,5.3-11.63,9.1-10.42,7.5-26.37,17.5-48.37,27.5-43.95,20-112.17,40-209.02,40v-1c96.85,0,164.97-20,208.92-40,21.95-10,37.9-20,48.32-27.5,5.21-3.7,9.05-6.9,11.58-9.1,1.26-1.1,2.21-1.9,2.84-2.5,.32-.3,.53-.5,.68-.7,.05-.1,.11-.1,.16-.2h.05q.05,.2,.16,.6Zm0,40l.11,.5h-.05c-.05,0-.11,.1-.16,.2-.16,.1-.42,.3-.68,.6-.63,.5-1.58,1.3-2.84,2.3-2.53,2-6.37,4.8-11.63,8.2-10.42,6.8-26.37,15.8-48.37,24.8-43.95,18-112.17,31-209.02,31v-1c96.85,0,164.97-13,208.92-31,21.95-9,37.9-18,48.32-24.7,5.21-3.4,9.05-6.2,11.58-8.1,1.26-1,2.21-1.8,2.84-2.3,.32-.3,.53-.5,.68-.6,.05-.1,.11-.1,.16-.2h.05q0-.1,.11,.3Zm0,263v-1H211.98v1H484.64Zm0,34.5v.5H211.98v-1H484.64v.5Zm0,33v.5H211.98v-1H484.64v.5Zm.11-286l-.11-.5-.11-.5h-.05c-.05,0-.11,.1-.16,.1-.16,.1-.37,.2-.68,.4-.63,.4-1.58,.9-2.84,1.5-2.53,1.3-6.37,3.2-11.58,5.4-10.42,4.5-26.32,10.5-48.32,16.5-43.95,12-112.07,24-208.92,24v1c96.85,0,165.02-12,209.02-24,22-6,37.9-12,48.37-16.5,5.21-2.3,9.05-4.1,11.58-5.4,1.26-.7,2.21-1.2,2.84-1.5,.32-.2,.53-.3,.68-.4,.11,0,.16-.1,.16-.1h.11Zm-.11,39.5l.05,.5h-.05c-.05,0-.11,0-.16,.1-.16,.1-.37,.2-.68,.3-.63,.2-1.58,.6-2.84,1-2.53,.9-6.37,2.1-11.58,3.6-10.42,3-26.37,7-48.32,11-43.95,8-112.12,16-209.02,16v-1c96.85,0,165.02-8,208.92-16,21.95-4,37.9-8,48.32-11,5.21-1.5,9.05-2.7,11.58-3.6,1.26-.4,2.21-.8,2.84-1,.32-.1,.53-.2,.68-.3,.05,0,.11-.1,.16-.1h.05q0,.1,.05,.5Zm.05,37.5l-.05-.5-.05-.5h-.21c-.16,0-.37,.1-.68,.2-.63,.1-1.58,.3-2.84,.6-2.53,.5-6.37,1.2-11.58,2-10.42,1.7-26.37,3.9-48.32,6.2-43.95,4.5-112.12,9-208.97,9v1c96.85,0,165.02-4.5,208.97-9,22-2.2,37.9-4.5,48.32-6.2,5.21-.8,9.05-1.5,11.58-2,1.26-.2,2.21-.4,2.84-.6,.32-.1,.53-.1,.68-.2h.32Zm-.05,35.5c.05,.5,0,.5,0,.5h-.21c-.16,0-.37,.1-.68,.1-.63,.1-1.58,.2-2.84,.4-2.53,.4-6.37,.9-11.58,1.5-10.42,1.2-26.37,2.8-48.32,4.5-43.95,3.2-112.12,6.5-208.97,6.5v-1c96.85,0,165.02-3.2,208.97-6.5,22-1.6,37.9-3.2,48.32-4.5,5.21-.6,9.05-1.1,11.58-1.5,1.26-.2,2.21-.3,2.84-.4,.32,0,.53-.1,.68-.1h.21v.5Zm0,37.5v-1h-.89c-.63,0-1.58,.1-2.84,.1-2.53,.1-6.37,.3-11.58,.5-10.42,.4-26.37,.9-48.32,1.4-43.95,1-112.12,2-208.97,2v1c96.85,0,165.02-1,208.97-2,22-.5,37.9-1,48.32-1.4,5.21-.2,9.05-.3,11.58-.5,1.26-.1,2.21-.1,2.84-.1h.89Zm0,35.5v-1H211.98v1H484.64Zm.11,331.6l-.11,.5-.11,.5h-.05c-.05,0-.11-.1-.16-.2-.16-.1-.37-.3-.68-.6-.63-.5-1.58-1.3-2.84-2.3-2.53-2-6.37-4.8-11.58-8.1-10.42-6.7-26.32-15.7-48.32-24.7-43.95-18-112.07-36-208.92-36v-1c96.85,0,165.07,18,209.02,36,22,9,37.9,18,48.37,24.8,5.21,3.4,9.05,6.2,11.63,8.2,1.26,1,2.21,1.8,2.84,2.3,.32,.3,.58,.5,.68,.6,.11,.1,.16,.1,.16,.2l.05-.2h0Zm-.11-43.6l.11-.5h-.05c-.05,0-.11-.1-.16-.1-.16-.1-.37-.2-.68-.4-.63-.4-1.58-.9-2.84-1.5-2.53-1.3-6.37-3.2-11.58-5.4-10.42-4.5-26.37-10.5-48.32-16.5-43.95-12-112.12-24-209.02-24v1c96.85,0,165.02,12,208.92,24,21.95,6,37.9,12,48.32,16.5,5.21,2.2,9.05,4.1,11.58,5.4,1.26,.7,2.21,1.2,2.84,1.5,.32,.2,.53,.3,.68,.4,.05,0,.11,.1,.16,.1h.05q-.05,0,0-.5Zm.05-40.5l-.05,.5-.05,.5h-.05c-.05,0-.11,0-.16-.1-.16-.1-.37-.1-.68-.3-.63-.2-1.58-.6-2.84-1-2.53-.9-6.37-2.1-11.58-3.6-10.42-3-26.37-7-48.32-11-43.95-8-112.12-16-208.97-16v-1c96.85,0,165.02,8,209.02,16,22,4,37.9,8,48.32,11,5.21,1.5,9.05,2.8,11.58,3.6,1.26,.4,2.21,.8,2.84,1,.32,.1,.53,.2,.68,.3,.05,0,.16,.1,.16,.1h.11Zm-.05-36.5q.05-.5,0-.5h-.21c-.16,0-.37-.1-.68-.2-.63-.1-1.58-.3-2.84-.6-2.53-.5-6.37-1.2-11.58-2-10.42-1.7-26.37-3.9-48.32-6.2-43.95-4.5-112.12-9-208.97-9v1c96.85,0,165.02,4.5,208.97,9,21.95,2.2,37.9,4.5,48.32,6.2,5.21,.8,9.05,1.5,11.58,2,1.26,.2,2.21,.4,2.84,.6,.32,.1,.53,.1,.68,.1h.21q0,.1,0-.4Zm.05-36.5v.5l-.05,.5h-.21c-.16,0-.37-.1-.68-.1-.63-.1-1.58-.2-2.84-.4-2.53-.4-6.37-.9-11.58-1.5-10.42-1.2-26.37-2.8-48.32-4.5-43.95-3.2-112.12-6.5-208.97-6.5v-1c96.85,0,165.02,3.2,208.97,6.5,22,1.6,37.9,3.2,48.32,4.5,5.21,.6,9.05,1.1,11.58,1.5,1.26,.2,2.21,.3,2.84,.4,.32,0,.53,.1,.68,.1h.26Zm-.05-36.5v-.5h-.89c-.63,0-1.58-.1-2.84-.1-2.53-.1-6.37-.3-11.58-.5-10.42-.4-26.37-.9-48.32-1.4-43.95-1-112.12-2-208.97-2v1c96.85,0,165.02,1,208.97,2,22,.5,37.9,1,48.32,1.4,5.21,.2,9.05,.3,11.58,.5,1.26,.1,2.21,.1,2.84,.1h.89v-.5Z"/>
        </g>
        <path class="cls-4" d="M-60.74,37.3l-.11,.5h.05c.05,0,.11,.1,.16,.2,.16,.2,.37,.4,.68,.7,.63,.6,1.58,1.4,2.84,2.5,2.53,2.2,6.37,5.3,11.63,9.1,10.42,7.5,26.37,17.5,48.37,27.5,43.95,20,112.17,40,209.02,40v-1c-96.85,0-164.97-20-208.92-40-21.95-10-37.9-20-48.32-27.5-5.21-3.7-9.05-6.9-11.58-9.1-1.26-1.1-2.21-1.9-2.84-2.5-.32-.3-.53-.5-.68-.7-.05-.1-.16-.1-.16-.2h-.05q.05,.1-.11,.5Zm0,40l-.11,.5h.05c.05,0,.11,.1,.16,.2,.16,.1,.37,.3,.68,.6,.68,.5,1.63,1.3,2.9,2.3,2.53,2,6.37,4.8,11.63,8.2,10.42,6.8,26.37,15.8,48.37,24.8,43.95,18,112.17,31,209.02,31v-1c-96.85,0-164.97-13-208.92-31-21.95-9-37.9-18-48.32-24.7-5.21-3.4-9.05-6.2-11.58-8.1-1.26-1-2.21-1.8-2.84-2.3-.32-.3-.53-.5-.68-.6-.05-.1-.16-.1-.16-.2h-.05q0-.1-.16,.3Zm0,263v-1H211.92v1H-60.74Zm0,34.5v.5H211.92v-1H-60.74v.5Zm0,33v.5H211.92v-1H-60.74v.5Zm-.05-286l.11-.5,.11-.5h.05c.05,0,.11,.1,.16,.1,.16,.1,.37,.2,.68,.4,.63,.4,1.58,.9,2.84,1.5,2.53,1.3,6.37,3.2,11.58,5.4,10.42,4.5,26.32,10.5,48.32,16.5,43.95,12,112.12,24,208.92,24v1c-96.85,0-165.02-12-209.02-24-22-6-37.9-12-48.37-16.5-5.21-2.3-9.05-4.1-11.58-5.4-1.26-.7-2.21-1.2-2.84-1.5-.32-.2-.53-.3-.68-.4-.05,0-.16-.1-.16-.1h-.11Zm.05,39.5l-.05,.5h.05c.05,0,.11,0,.16,.1,.16,.1,.37,.2,.68,.3,.63,.2,1.58,.6,2.84,1,2.53,.9,6.37,2.1,11.58,3.6,10.42,3,26.37,7,48.32,11,43.95,8,112.12,16,208.97,16v-1c-96.85,0-165.02-8-208.97-16-21.95-4-37.9-8-48.32-11-5.21-1.5-9.05-2.7-11.58-3.6-1.26-.4-2.21-.8-2.84-1-.32-.1-.53-.2-.68-.3-.05,0-.16-.1-.16-.1h-.05q.11,.1,.05,.5Zm0,37.5l.05-.5,.05-.5h.21c.16,0,.37,.1,.68,.2,.63,.1,1.58,.3,2.84,.6,2.53,.5,6.37,1.2,11.58,2,10.42,1.7,26.37,3.9,48.32,6.2,43.95,4.5,112.12,9,208.97,9v1c-96.85,0-165.02-4.5-208.97-9-22-2.2-37.9-4.5-48.32-6.2-5.21-.8-9.05-1.5-11.58-2-1.26-.2-2.21-.4-2.84-.6-.32-.1-.53-.1-.68-.2h-.32Zm0,35.5v.5h.21c.16,0,.37,.1,.68,.1,.63,.1,1.58,.2,2.84,.4,2.53,.4,6.37,.9,11.58,1.5,10.42,1.2,26.37,2.8,48.32,4.5,43.95,3.2,112.12,6.5,208.97,6.5v-1c-96.85,0-165.02-3.2-208.97-6.5-21.95-1.6-37.9-3.2-48.32-4.5-5.21-.6-9.05-1.1-11.58-1.5-1.26-.2-2.21-.3-2.84-.4-.32,0-.53-.1-.68-.1h-.21q.05,0,0,.5Zm0,37.5v-1h.89c.63,0,1.58,.1,2.84,.1,2.53,.1,6.37,.3,11.58,.5,10.42,.4,26.37,.9,48.32,1.4,43.95,1,112.12,2,208.97,2v1c-96.85,0-165.02-1-208.97-2-22-.5-37.9-1-48.32-1.4-5.21-.2-9.05-.3-11.58-.5-1.21,.1-2.16,0-2.79,0h-.68l-.26-.1Zm0,35.5v-1H211.92v1H-60.74Zm-.11,331.6l.11,.5,.11,.5h.05c.05,0,.11-.1,.16-.2,.16-.1,.37-.3,.68-.6,.63-.5,1.58-1.3,2.84-2.3,2.53-2,6.37-4.8,11.58-8.1,10.42-6.7,26.32-15.7,48.32-24.7,43.95-18,112.07-36,208.92-36v-1c-96.85,0-165.07,18-209.02,36-22,9-37.9,18-48.37,24.8-5.21,3.4-9.05,6.2-11.63,8.2-1.26,1-2.21,1.8-2.84,2.3-.32,.3-.53,.5-.68,.6-.05,.1-.16,.1-.16,.2l-.05-.2h0Zm.11-43.6l-.05-.4h.05c.05,0,.11-.1,.16-.1,.16-.1,.37-.2,.68-.4,.63-.4,1.58-.9,2.84-1.5,2.53-1.3,6.37-3.2,11.58-5.4,10.42-4.5,26.37-10.5,48.37-16.5,43.95-12,112.12-24,209.02-24v1c-96.85,0-165.02,12-208.92,24-21.95,6-37.9,12-48.32,16.5-5.21,2.2-9.05,4.1-11.58,5.4-1.26,.7-2.21,1.2-2.84,1.5-.32,.2-.53,.3-.68,.4-.05,0-.16,.1-.16,.1h-.05q0-.1-.11-.6Zm-.05-40.5l.05,.5,.05,.5h.05c.05,0,.11,0,.16-.1,.16-.1,.37-.1,.68-.3,.63-.2,1.58-.6,2.84-1,2.53-.9,6.37-2.1,11.58-3.6,10.42-3,26.32-7,48.32-11,43.95-8,112.12-16,208.97-16v-1c-96.85,0-165.02,8-208.97,16-22,4-37.9,8-48.32,11-5.21,1.5-9.05,2.8-11.58,3.6-1.26,.4-2.21,.8-2.84,1-.32,.1-.53,.2-.68,.3-.05,0-.16,.1-.16,.1h-.16Zm.05-36.5l-.05-.5h.21c.16,0,.37-.1,.68-.2,.63-.1,1.58-.3,2.84-.6,2.53-.5,6.37-1.2,11.58-2,10.42-1.7,26.37-3.9,48.32-6.2,43.95-4.5,112.12-9,208.97-9v1c-96.85,0-165.02,4.5-208.97,9-21.95,2.2-37.9,4.5-48.32,6.2-5.21,.8-9.05,1.5-11.58,2-1.26,.2-2.21,.4-2.84,.6-.32,.1-.53,.1-.68,.1h-.21q.11,.1,.05-.4Zm0-36.5v1h.21c.16,0,.37-.1,.68-.1,.63-.1,1.58-.2,2.84-.4,2.53-.4,6.37-.9,11.58-1.5,10.42-1.2,26.37-2.8,48.32-4.5,43.95-3.2,112.12-6.5,208.97-6.5v-1c-96.85,0-165.02,3.2-208.97,6.5-22,1.6-37.9,3.2-48.32,4.5-5.21,.6-9.05,1.1-11.58,1.5-1.26,.2-2.21,.3-2.84,.4-.32,0-.53,.1-.68,.1h-.21Zm0-36.5v-.5h.89c.63,0,1.58-.1,2.84-.1,2.53-.1,6.37-.3,11.58-.5,10.42-.4,26.37-.9,48.32-1.4,43.95-1,112.12-2,208.97-2v1c-96.85,0-165.02,1-208.97,2-21.95,.5-37.9,1-48.32,1.4-5.21,.2-9.05,.3-11.58,.5-1.26,.1-2.21,.1-2.84,.1h-.89s0,0,0-.5Z"/>
      </g>
    </g>
  </g>
</svg>